<?xml version="1.0" standalone="no"?>
<!DOCTYPE svg PUBLIC "-//W3C//DTD SVG 20010904//EN"
 "http://www.w3.org/TR/2001/REC-SVG-20010904/DTD/svg10.dtd">
<svg version="1.0" xmlns="http://www.w3.org/2000/svg"
 width="200.000000pt" height="200.000000pt" viewBox="0 0 200.000000 200.000000"
 preserveAspectRatio="xMidYMid meet">
<metadata>
Created by potrace 1.14, written by Peter Selinger 2001-2017
</metadata>
<g transform="translate(0.000000,200.000000) scale(0.100000,-0.100000)"
fill="#000000" stroke="none">
<path d="M559 1473 c-8 -17 2 -293 10 -293 5 0 7 66 5 147 -3 136 -7 167 -15
146z"/>
<path d="M126 1041 c-10 -16 1 -16 159 -10 l150 5 -137 2 c-75 1 -143 5 -151
8 -8 3 -18 1 -21 -5z"/>
<path d="M1295 1040 l-400 -5 398 -4 c218 -2 402 -4 407 -5 6 -1 10 3 11 9 0
5 -3 10 -8 10 -4 0 -188 -2 -408 -5z"/>
<path d="M713 1033 c9 -2 23 -2 30 0 6 3 -1 5 -18 5 -16 0 -22 -2 -12 -5z"/>
<path d="M559 755 c-1 -74 -2 -139 -3 -145 -1 -5 3 -11 7 -12 4 -2 9 63 10
145 1 81 -1 147 -5 147 -5 0 -9 -61 -9 -135z"/>
<path d="M735 858 c-3 -8 -4 -72 -3 -144 l3 -129 65 -3 c87 -4 127 4 156 33
28 28 31 70 8 104 -12 17 -13 26 -5 34 18 18 13 72 -10 93 -27 24 -205 35
-214 12z m155 -78 c0 -17 -7 -20 -40 -20 -33 0 -40 3 -40 20 0 17 7 20 40 20
33 0 40 -3 40 -20z m5 -105 c0 -16 -8 -21 -42 -23 -40 -3 -43 -2 -43 23 0 25
3 26 43 23 34 -2 42 -7 42 -23z"/>
<path d="M1010 725 l0 -145 40 0 40 0 0 145 0 145 -40 0 -40 0 0 -145z"/>
<path d="M1130 735 c0 -74 0 -138 0 -142 0 -5 15 -9 35 -11 l35 -3 0 78 c1 64
3 75 13 61 7 -9 32 -44 56 -78 40 -54 48 -61 75 -58 l31 3 0 140 0 140 -37 3
-38 3 0 -73 c-1 -65 -2 -71 -15 -53 -80 114 -90 124 -122 125 l-33 0 0 -135z"/>
<path d="M1407 864 c-13 -13 -8 -183 7 -219 30 -71 146 -88 206 -30 30 29 30
30 30 142 l0 114 -37 -3 -38 -3 -3 -97 c-3 -105 -13 -125 -57 -114 -24 6 -24
9 -27 109 l-3 102 -35 3 c-20 2 -39 0 -43 -4z"/>
<path d="M1711 844 c-24 -20 -31 -34 -31 -62 0 -47 22 -69 87 -88 32 -9 53
-21 53 -30 0 -17 -46 -19 -86 -3 -24 9 -30 7 -46 -13 -24 -32 -23 -37 17 -54
83 -34 186 -6 198 55 12 61 -22 97 -110 116 -39 8 -45 35 -9 35 14 0 37 -5 52
-11 24 -9 30 -7 46 13 24 32 23 37 -17 54 -56 23 -118 18 -154 -12z"/>
</g>
</svg>
